<svg version="1.2" xmlns="http://www.w3.org/2000/svg" viewBox="0 0 1080 1080" width="1080" height="1080">
	<style>
		.s0 { fill: #6585fb } 
		.s1 { fill: #ffffff } 
		.s2 { fill: #000000 } 
		.s3 { fill: #fb6565 } 
		.s4 { fill: #65fbc4 } 
		.s5 { fill: #c1fb65 } 
	</style>
	<g id="tall mascot">
		<path id="Shape 2" fill-rule="evenodd" class="s0" d="m779 174c0 0-3.14 11.6-8.35 31.86-2.47 10.1-5.35 22.35-8.5 36.37q-2.27 10.51-4.66 22.28-2.32 11.76-4.68 24.63-2.27 12.86-4.51 26.69-2.13 13.82-4.17 28.48-1.92 14.65-3.68 30.01-1.64 15.35-3.08 31.27-1.3 15.91-2.37 32.27-0.93 16.36-1.6 33.03-0.53 16.67-0.78 33.54-0.12 16.87 0.04 33.8 0.3 16.94 0.86 33.83 0.69 16.89 1.63 33.61 1.06 16.72 2.33 33.13 1.4 16.43 2.97 32.42 1.67 16.01 3.49 31.45 1.9 15.46 3.89 30.21 2.07 14.78 4.17 28.71 2.18 13.96 4.32 26.94 2.2 12.99 4.31 24.87 2.16 11.89 4.17 22.52c2.74 14.18 5.21 26.58 7.31 36.8 4.33 20.52 6.89 32.28 6.89 32.28 0 0-4.81 0-13.23 0-8.43 0-20.46 0-34.89 0-7.22 0-15.04 0-23.32 0-8.27 0-16.99 0-26.01 0-9.03 0-18.35 0-27.83 0-9.47 0-19.09 0-28.72 0-9.62 0-19.25 0-28.72 0-9.48 0-18.8 0-27.83 0-9.02 0-17.74 0-26.01 0-8.28 0-16.1 0-23.31 0-14.44 0-26.47 0-34.9 0-8.42 0-13.23 0-13.23 0 0 0 0-11.42 0-31.41 0-9.99 0-22.13 0-36.05q0-10.45 0-22.17 0-11.73 0-24.59 0-12.86 0-26.72 0-13.87 0-28.6 0-14.74 0-30.21 0-15.47 0-31.54 0-16.08 0-32.62 0-16.54 0-33.42 0-16.87 0-33.95 0-17.08 0-34.22 0-17.14 0-34.22 0-17.08 0-33.95 0-16.88 0-33.42 0-16.54 0-32.62 0-16.07 0-31.54 0-15.47 0-30.21 0-14.73 0-28.6 0-13.86 0-26.72 0-12.86 0-24.59 0-11.72 0-22.17c0-13.92 0-26.06 0-36.05 0-19.99 0-31.41 0-31.41 0 0 4.81 0 13.23 0 8.43 0 20.46 0 34.9 0 7.21 0 15.03 0 23.31 0 8.27 0 16.99 0 26.01 0 9.03 0 18.35 0 27.83 0 9.47 0 19.1 0 28.72 0 9.63 0 19.25 0 28.72 0 9.48 0 18.8 0 27.83 0 9.02 0 17.74 0 26.01 0 8.28 0 16.1 0 23.32 0 14.43 0 26.46 0 34.89 0 8.42 0 13.23 0 13.23 0z"/>
		<path id="Shape 11" fill-rule="evenodd" class="s1" d="m542 206c17.67 0 32 14.33 32 32 0 17.67-14.33 32-32 32-17.67 0-32-14.33-32-32 0-17.67 14.33-32 32-32z"/>
		<path id="Shape 11 copy" fill-rule="evenodd" class="s1" d="m682 206c17.67 0 32 14.33 32 32 0 17.67-14.33 32-32 32-17.67 0-32-14.33-32-32 0-17.67 14.33-32 32-32z"/>
		<path id="Shape 12" class="s2" d="m541 277c-8.85 0-16-7.15-16-16 0-8.85 7.15-16 16-16 8.85 0 16 7.15 16 16 0 8.85-7.15 16-16 16zm0 0c-8.85 0-16-7.15-16-16 0-8.85 7.15-16 16-16 8.85 0 16 7.15 16 16 0 8.85-7.15 16-16 16z"/>
		<path id="Shape 12 copy" class="s2" d="m679.5 276c-8.85 0-16-7.15-16-16 0-8.85 7.15-16 16-16 8.85 0 16 7.15 16 16 0 8.85-7.15 16-16 16zm0 0c-8.85 0-16-7.15-16-16 0-8.85 7.15-16 16-16 8.85 0 16 7.15 16 16 0 8.85-7.15 16-16 16z"/>
		<path id="Shape 13" fill-rule="evenodd" class="s2" d="m690.5 366c-15.21 0-27.5-10.73-27.5-24 0-13.27 12.29-24 27.5-24 15.21 0 27.5 10.73 27.5 24 0 13.27-12.29 24-27.5 24z"/>
	</g>
	<g id="circle mascot">
		<path id="Shape 4" fill-rule="evenodd" class="s3" d="m447 933c-122.21 0-221-98.79-221-221 0-122.21 98.79-221 221-221 122.21 0 221 98.79 221 221 0 122.21-98.79 221-221 221z"/>
		<path id="Shape 8" class="s1" d="m539.5 654c-24.06 0-43.5-19.44-43.5-43.5 0-24.06 19.44-43.5 43.5-43.5 24.06 0 43.5 19.44 43.5 43.5 0 24.06-19.44 43.5-43.5 43.5zm0 0c-24.06 0-43.5-19.44-43.5-43.5 0-24.06 19.44-43.5 43.5-43.5 24.06 0 43.5 19.44 43.5 43.5 0 24.06-19.44 43.5-43.5 43.5zm0 0c-24.06 0-43.5-19.44-43.5-43.5 0-24.06 19.44-43.5 43.5-43.5 24.06 0 43.5 19.44 43.5 43.5 0 24.06-19.44 43.5-43.5 43.5zm0 0c-24.06 0-43.5-19.44-43.5-43.5 0-24.06 19.44-43.5 43.5-43.5 24.06 0 43.5 19.44 43.5 43.5 0 24.06-19.44 43.5-43.5 43.5z"/>
		<path id="Shape 8 copy" class="s1" d="m373.5 654c-24.06 0-43.5-19.44-43.5-43.5 0-24.06 19.44-43.5 43.5-43.5 24.06 0 43.5 19.44 43.5 43.5 0 24.06-19.44 43.5-43.5 43.5zm0 0c-24.06 0-43.5-19.44-43.5-43.5 0-24.06 19.44-43.5 43.5-43.5 24.06 0 43.5 19.44 43.5 43.5 0 24.06-19.44 43.5-43.5 43.5zm0 0c-24.06 0-43.5-19.44-43.5-43.5 0-24.06 19.44-43.5 43.5-43.5 24.06 0 43.5 19.44 43.5 43.5 0 24.06-19.44 43.5-43.5 43.5zm0 0c-24.06 0-43.5-19.44-43.5-43.5 0-24.06 19.44-43.5 43.5-43.5 24.06 0 43.5 19.44 43.5 43.5 0 24.06-19.44 43.5-43.5 43.5z"/>
		<path id="Shape 9" class="s2" d="m387.5 635c-7.47 0-13.5-6.03-13.5-13.5 0-7.47 6.03-13.5 13.5-13.5 7.47 0 13.5 6.03 13.5 13.5 0 7.47-6.03 13.5-13.5 13.5zm0 0c-7.47 0-13.5-6.03-13.5-13.5 0-7.47 6.03-13.5 13.5-13.5 7.47 0 13.5 6.03 13.5 13.5 0 7.47-6.03 13.5-13.5 13.5z"/>
		<path id="Shape 9 copy" class="s2" d="m547.5 635c-7.47 0-13.5-6.03-13.5-13.5 0-7.47 6.03-13.5 13.5-13.5 7.47 0 13.5 6.03 13.5 13.5 0 7.47-6.03 13.5-13.5 13.5zm0 0c-7.47 0-13.5-6.03-13.5-13.5 0-7.47 6.03-13.5 13.5-13.5 7.47 0 13.5 6.03 13.5 13.5 0 7.47-6.03 13.5-13.5 13.5z"/>
	</g>
	<g id="mascort last">
		<path id="Shape 5" fill-rule="evenodd" class="s4" d="m283 728c101.07 0 183 81.93 183 183v48h-366v-48c0-101.07 81.93-183 183-183z"/>
		<path id="eye1 copy" fill-rule="evenodd" class="s1" d="m211.38 811.77c-10.16 0-18.38-8.22-18.38-18.39 0-10.16 8.22-18.38 18.38-18.38 10.17 0 18.39 8.22 18.39 18.38 0 10.17-8.22 18.39-18.39 18.39z"/>
		<path id="eye2 copy" fill-rule="evenodd" class="s1" d="m343.92 811.77c-10.16 0-18.38-8.22-18.38-18.39 0-10.16 8.22-18.38 18.38-18.38 10.17 0 18.38 8.22 18.38 18.38 0 10.17-8.21 18.39-18.38 18.39z"/>
		<path id="whtite dot copy" class="s2" d="m213.31 807.62c-4.59 0-8.31-3.71-8.31-8.31 0-4.59 3.72-8.31 8.31-8.31 4.6 0 8.32 3.72 8.32 8.31 0 4.6-3.72 8.31-8.32 8.31zm0 0c-4.59 0-8.31-3.71-8.31-8.31 0-4.59 3.72-8.31 8.31-8.31 4.6 0 8.32 3.72 8.32 8.31 0 4.6-3.72 8.31-8.32 8.31z"/>
		<path id="white dot 2 copy" class="s2" d="m343.31 807.62c-4.59 0-8.31-3.71-8.31-8.31 0-4.59 3.72-8.31 8.31-8.31 4.6 0 8.32 3.72 8.32 8.31 0 4.6-3.72 8.31-8.32 8.31zm0 0c-4.59 0-8.31-3.71-8.31-8.31 0-4.59 3.72-8.31 8.31-8.31 4.6 0 8.32 3.72 8.32 8.31 0 4.6-3.72 8.31-8.32 8.31z"/>
		<path id="Shape 7" fill-rule="evenodd" class="s2" d="m218.25 934.5c-23.92 0-43.25-19.33-43.25-43.25 0-23.92 19.33-43.25 43.25-43.25 23.92 0 43.25 19.33 43.25 43.25 0 23.92-19.33 43.25-43.25 43.25z"/>
	</g>
	<g id="mascot green">
		<path id="1st" fill-rule="evenodd" class="s5" d="m802 390c68.48 0 124 55.52 124 124v445h-248v-445c0-68.48 55.52-124 124-124z"/>
		<path id="eye1" fill-rule="evenodd" class="s1" d="m751.38 491.77c-10.16 0-18.38-8.22-18.38-18.39 0-10.16 8.22-18.38 18.38-18.38 10.17 0 18.39 8.22 18.39 18.38 0 10.17-8.22 18.39-18.39 18.39z"/>
		<path id="eye2" fill-rule="evenodd" class="s1" d="m833.92 491.77c-10.16 0-18.38-8.22-18.38-18.39 0-10.16 8.22-18.38 18.38-18.38 10.17 0 18.38 8.22 18.38 18.38 0 10.17-8.21 18.39-18.38 18.39z"/>
		<path id="whtite dot" class="s2" d="m753.31 487.62c-4.59 0-8.31-3.71-8.31-8.31 0-4.59 3.72-8.31 8.31-8.31 4.6 0 8.32 3.72 8.32 8.31 0 4.6-3.72 8.31-8.32 8.31zm0 0c-4.59 0-8.31-3.71-8.31-8.31 0-4.59 3.72-8.31 8.31-8.31 4.6 0 8.32 3.72 8.32 8.31 0 4.6-3.72 8.31-8.32 8.31z"/>
		<path id="white dot 2" class="s2" d="m833.31 487.62c-4.59 0-8.31-3.71-8.31-8.31 0-4.59 3.72-8.31 8.31-8.31 4.6 0 8.32 3.72 8.32 8.31 0 4.6-3.72 8.31-8.32 8.31zm0 0c-4.59 0-8.31-3.71-8.31-8.31 0-4.59 3.72-8.31 8.31-8.31 4.6 0 8.32 3.72 8.32 8.31 0 4.6-3.72 8.31-8.32 8.31z"/>
		<path id="Shape 6" fill-rule="evenodd" class="s2" d="m879 552.06v3.88h-147v-3.88z"/>
		<path id="Shape 10" fill-rule="evenodd" class="s2" d="m583.08 739.96l-2.49 1.54-248.79-39.23 2.22-2.5z"/>
	</g>
</svg>